<svg xmlns="http://www.w3.org/2000/svg" xmlns:xlink="http://www.w3.org/1999/xlink" width="2000" zoomAndPan="magnify" viewBox="0 0 1500 1499.999933" height="2000" preserveAspectRatio="xMidYMid meet" version="1.0"><defs><clipPath id="a255f2292b"><path d="M 56.21875 259.414062 L 316.316406 259.414062 L 316.316406 1165.679688 L 56.21875 1165.679688 Z M 56.21875 259.414062 " clip-rule="nonzero"/></clipPath><clipPath id="c1363958c0"><path d="M 186.269531 259.414062 L 316.316406 335.078125 L 316.316406 1089.546875 L 186.269531 1165.210938 L 56.21875 1089.546875 L 56.21875 335.078125 Z M 186.269531 259.414062 " clip-rule="nonzero"/></clipPath><clipPath id="fb387dee52"><path d="M 0.21875 0.414062 L 260.316406 0.414062 L 260.316406 906.441406 L 0.21875 906.441406 Z M 0.21875 0.414062 " clip-rule="nonzero"/></clipPath><clipPath id="3305a4d017"><path d="M 130.269531 0.414062 L 260.316406 76.078125 L 260.316406 830.546875 L 130.269531 906.210938 L 0.21875 830.546875 L 0.21875 76.078125 Z M 130.269531 0.414062 " clip-rule="nonzero"/></clipPath><clipPath id="b843e2fb22"><rect x="0" width="261" y="0" height="907"/></clipPath><clipPath id="ce270385f5"><path d="M 66 37 L 695 37 L 695 554 L 66 554 Z M 66 37 " clip-rule="nonzero"/></clipPath><clipPath id="1624f63c03"><path d="M 628.796875 -0.269531 L 760.167969 224.207031 L 131.457031 592.152344 L 0.0820312 367.671875 Z M 628.796875 -0.269531 " clip-rule="nonzero"/></clipPath><clipPath id="a5410c6634"><path d="M 694.484375 111.96875 L 694.867188 262.425781 L 197.433594 553.539062 L 66.445312 479.515625 L 66.0625 329.058594 L 563.496094 37.945312 Z M 694.484375 111.96875 " clip-rule="nonzero"/></clipPath><clipPath id="0efecacf8d"><path d="M 0 0.921875 L 628.878906 0.921875 L 628.878906 516.679688 L 0 516.679688 Z M 0 0.921875 " clip-rule="nonzero"/></clipPath><clipPath id="5c0814418d"><path d="M 562.796875 -37.269531 L 694.167969 187.207031 L 65.457031 555.152344 L -65.917969 330.671875 Z M 562.796875 -37.269531 " clip-rule="nonzero"/></clipPath><clipPath id="434f8db432"><path d="M 628.484375 74.96875 L 628.867188 225.425781 L 131.433594 516.539062 L 0.445312 442.515625 L 0.0625 292.058594 L 497.496094 0.945312 Z M 628.484375 74.96875 " clip-rule="nonzero"/></clipPath><clipPath id="077c6fa956"><rect x="0" width="629" y="0" height="517"/></clipPath><clipPath id="36fa71fe8f"><path d="M 79 878 L 826 878 L 826 1462 L 79 1462 Z M 79 878 " clip-rule="nonzero"/></clipPath><clipPath id="1e8e574a3d"><path d="M 13.996094 1064.578125 L 145.21875 840.011719 L 890.84375 1275.71875 L 759.617188 1500.285156 Z M 13.996094 1064.578125 " clip-rule="nonzero"/></clipPath><clipPath id="115735a790"><path d="M 79.605469 952.296875 L 210.546875 878.1875 L 825.015625 1237.253906 L 824.730469 1387.710938 L 693.792969 1461.820312 L 79.320312 1102.75 Z M 79.605469 952.296875 " clip-rule="nonzero"/></clipPath><clipPath id="d93d87f59a"><path d="M 0.28125 0.160156 L 746.199219 0.160156 L 746.199219 583.839844 L 0.28125 583.839844 Z M 0.28125 0.160156 " clip-rule="nonzero"/></clipPath><clipPath id="ae48ce3bc6"><path d="M -65.003906 186.578125 L 66.21875 -37.988281 L 811.84375 397.71875 L 680.617188 622.285156 Z M -65.003906 186.578125 " clip-rule="nonzero"/></clipPath><clipPath id="9bb1a6952f"><path d="M 0.605469 74.296875 L 131.546875 0.1875 L 746.015625 359.253906 L 745.730469 509.710938 L 614.792969 583.820312 L 0.320312 224.75 Z M 0.605469 74.296875 " clip-rule="nonzero"/></clipPath><clipPath id="8ae7526397"><rect x="0" width="747" y="0" height="584"/></clipPath><clipPath id="f1757fb7ad"><path d="M 664 936 L 1213 936 L 1213 1405 L 664 1405 Z M 664 936 " clip-rule="nonzero"/></clipPath><clipPath id="1f262d59e6"><path d="M 1146.304688 897.789062 L 1277.675781 1122.265625 L 730.511719 1442.484375 L 599.140625 1218.007812 Z M 1146.304688 897.789062 " clip-rule="nonzero"/></clipPath><clipPath id="2765772a3c"><path d="M 1211.992188 1010.027344 L 1212.375 1160.484375 L 795.894531 1404.222656 L 664.90625 1330.199219 L 664.523438 1179.742188 L 1081.003906 936.003906 Z M 1211.992188 1010.027344 " clip-rule="nonzero"/></clipPath><clipPath id="4d92b99b02"><path d="M 0.398438 0 L 548.558594 0 L 548.558594 468.238281 L 0.398438 468.238281 Z M 0.398438 0 " clip-rule="nonzero"/></clipPath><clipPath id="50ca3206bc"><path d="M 482.304688 -38.210938 L 613.675781 186.265625 L 66.511719 506.484375 L -64.859375 282.007812 Z M 482.304688 -38.210938 " clip-rule="nonzero"/></clipPath><clipPath id="89461439d0"><path d="M 547.992188 74.027344 L 548.375 224.484375 L 131.894531 468.222656 L 0.90625 394.199219 L 0.523438 243.742188 L 417.003906 0.00390625 Z M 547.992188 74.027344 " clip-rule="nonzero"/></clipPath><clipPath id="3cd08324e1"><rect x="0" width="549" y="0" height="469"/></clipPath><clipPath id="329c1f1fb1"><path d="M 1075.140625 447.183594 L 1335.234375 447.183594 L 1335.234375 741.820312 L 1075.140625 741.820312 Z M 1075.140625 447.183594 " clip-rule="nonzero"/></clipPath><clipPath id="695155a387"><path d="M 1205.1875 447.183594 L 1335.234375 522.847656 L 1335.234375 666.035156 L 1205.1875 741.699219 L 1075.140625 666.035156 L 1075.140625 522.847656 Z M 1205.1875 447.183594 " clip-rule="nonzero"/></clipPath><clipPath id="d5ce4137a6"><path d="M 0.140625 0.183594 L 260.234375 0.183594 L 260.234375 294.820312 L 0.140625 294.820312 Z M 0.140625 0.183594 " clip-rule="nonzero"/></clipPath><clipPath id="834d39e913"><path d="M 130.1875 0.183594 L 260.234375 75.847656 L 260.234375 219.035156 L 130.1875 294.699219 L 0.140625 219.035156 L 0.140625 75.847656 Z M 130.1875 0.183594 " clip-rule="nonzero"/></clipPath><clipPath id="bbc6962af1"><rect x="0" width="261" y="0" height="295"/></clipPath><clipPath id="5e384e3763"><path d="M 380.472656 337.242188 L 1011 337.242188 L 1011 701.457031 L 380.472656 701.457031 Z M 380.472656 337.242188 " clip-rule="nonzero"/></clipPath><clipPath id="8e28821850"><path d="M 695.726562 337.242188 L 1010.984375 519.351562 L 695.726562 701.457031 L 380.472656 519.351562 Z M 695.726562 337.242188 " clip-rule="nonzero"/></clipPath><clipPath id="75f3c263bd"><path d="M 0.472656 0.242188 L 631 0.242188 L 631 364.457031 L 0.472656 364.457031 Z M 0.472656 0.242188 " clip-rule="nonzero"/></clipPath><clipPath id="6c3bf7353c"><path d="M 315.726562 0.242188 L 630.984375 182.351562 L 315.726562 364.457031 L 0.472656 182.351562 Z M 315.726562 0.242188 " clip-rule="nonzero"/></clipPath><clipPath id="d983ea2901"><rect x="0" width="631" y="0" height="365"/></clipPath><clipPath id="c0dd67c66d"><path d="M 703 536 L 1020 536 L 1020 1084 L 703 1084 Z M 703 536 " clip-rule="nonzero"/></clipPath><clipPath id="35a8346b0e"><path d="M 1176.148438 627.3125 L 861.6875 1175.15625 L 545.8125 993.84375 L 860.273438 446.003906 Z M 1176.148438 627.3125 " clip-rule="nonzero"/></clipPath><clipPath id="1d9e47f4f8"><path d="M 1019.207031 900.730469 L 704.332031 1083.488281 L 703.335938 719.417969 L 1018.210938 536.65625 Z M 1019.207031 900.730469 " clip-rule="nonzero"/></clipPath><clipPath id="c5a1fa200e"><path d="M 0.28125 0.640625 L 316.359375 0.640625 L 316.359375 547.601562 L 0.28125 547.601562 Z M 0.28125 0.640625 " clip-rule="nonzero"/></clipPath><clipPath id="78ea17a92d"><path d="M 473.148438 91.3125 L 158.6875 639.15625 L -157.1875 457.84375 L 157.273438 -89.996094 Z M 473.148438 91.3125 " clip-rule="nonzero"/></clipPath><clipPath id="a1997efada"><path d="M 316.207031 364.730469 L 1.332031 547.488281 L 0.335938 183.417969 L 315.210938 0.65625 Z M 316.207031 364.730469 " clip-rule="nonzero"/></clipPath><clipPath id="54690a34d1"><rect x="0" width="317" y="0" height="548"/></clipPath><clipPath id="e50be5c6b1"><path d="M 372 538 L 689 538 L 689 1085 L 372 1085 Z M 372 538 " clip-rule="nonzero"/></clipPath><clipPath id="a1908e386e"><path d="M 529.53125 1175.480469 L 214.648438 627.878906 L 530.382812 446.324219 L 845.265625 993.925781 Z M 529.53125 1175.480469 " clip-rule="nonzero"/></clipPath><clipPath id="28d6bbe88a"><path d="M 372.382812 902.1875 L 373.097656 538.113281 L 688.113281 720.632812 L 687.398438 1084.703125 Z M 372.382812 902.1875 " clip-rule="nonzero"/></clipPath><clipPath id="571e2373dd"><path d="M 0.320312 0.078125 L 316.160156 0.078125 L 316.160156 546.800781 L 0.320312 546.800781 Z M 0.320312 0.078125 " clip-rule="nonzero"/></clipPath><clipPath id="46a61cbbe4"><path d="M 157.53125 637.480469 L -157.351562 89.878906 L 158.382812 -91.675781 L 473.265625 455.925781 Z M 157.53125 637.480469 " clip-rule="nonzero"/></clipPath><clipPath id="d3e655245f"><path d="M 0.382812 364.1875 L 1.097656 0.113281 L 316.113281 182.632812 L 315.398438 546.703125 Z M 0.382812 364.1875 " clip-rule="nonzero"/></clipPath><clipPath id="83d057c3ff"><rect x="0" width="317" y="0" height="547"/></clipPath><clipPath id="7883b27d14"><rect x="0" width="1336" y="0" height="1500"/></clipPath></defs><g transform="matrix(1, 0, 0, 1, 82, 0.000000000000112861)"><g clip-path="url(#7883b27d14)"><g clip-path="url(#a255f2292b)"><g clip-path="url(#c1363958c0)"><g transform="matrix(1, 0, 0, 1, 56, 259)"><g clip-path="url(#b843e2fb22)"><g clip-path="url(#fb387dee52)"><g clip-path="url(#3305a4d017)"><path fill="#1e1e1e" d="M 0.21875 0.414062 L 260.316406 0.414062 L 260.316406 906.679688 L 0.21875 906.679688 Z M 0.21875 0.414062 " fill-opacity="1" fill-rule="nonzero"/></g></g></g></g></g></g><g clip-path="url(#ce270385f5)"><g clip-path="url(#1624f63c03)"><g clip-path="url(#a5410c6634)"><g transform="matrix(1, 0, 0, 1, 66, 37)"><g clip-path="url(#077c6fa956)"><g clip-path="url(#0efecacf8d)"><g clip-path="url(#5c0814418d)"><g clip-path="url(#434f8db432)"><path fill="#1e1e1e" d="M 562.796875 -37.269531 L 694.167969 187.207031 L 66.332031 554.636719 L -65.039062 330.160156 Z M 562.796875 -37.269531 " fill-opacity="1" fill-rule="nonzero"/></g></g></g></g></g></g></g></g><g clip-path="url(#36fa71fe8f)"><g clip-path="url(#1e8e574a3d)"><g clip-path="url(#115735a790)"><g transform="matrix(1, 0, 0, 1, 79, 878)"><g clip-path="url(#8ae7526397)"><g clip-path="url(#d93d87f59a)"><g clip-path="url(#ae48ce3bc6)"><g clip-path="url(#9bb1a6952f)"><path fill="#1e1e1e" d="M -65.003906 186.578125 L 66.21875 -37.988281 L 810.964844 397.207031 L 679.742188 621.773438 Z M -65.003906 186.578125 " fill-opacity="1" fill-rule="nonzero"/></g></g></g></g></g></g></g></g><g clip-path="url(#f1757fb7ad)"><g clip-path="url(#1f262d59e6)"><g clip-path="url(#2765772a3c)"><g transform="matrix(1, 0, 0, 1, 664, 936)"><g clip-path="url(#3cd08324e1)"><g clip-path="url(#4d92b99b02)"><g clip-path="url(#50ca3206bc)"><g clip-path="url(#89461439d0)"><path fill="#1e1e1e" d="M 482.304688 -38.210938 L 613.675781 186.265625 L 66.511719 506.484375 L -64.859375 282.007812 Z M 482.304688 -38.210938 " fill-opacity="1" fill-rule="nonzero"/></g></g></g></g></g></g></g></g><g clip-path="url(#329c1f1fb1)"><g clip-path="url(#695155a387)"><g transform="matrix(1, 0, 0, 1, 1075, 447)"><g clip-path="url(#bbc6962af1)"><g clip-path="url(#d5ce4137a6)"><g clip-path="url(#834d39e913)"><path fill="#1e1e1e" d="M 0.140625 0.183594 L 260.234375 0.183594 L 260.234375 294.820312 L 0.140625 294.820312 Z M 0.140625 0.183594 " fill-opacity="1" fill-rule="nonzero"/></g></g></g></g></g></g><g clip-path="url(#5e384e3763)"><g clip-path="url(#8e28821850)"><g transform="matrix(1, 0, 0, 1, 380, 337)"><g clip-path="url(#d983ea2901)"><g clip-path="url(#75f3c263bd)"><g clip-path="url(#6c3bf7353c)"><path fill="#1e1e1e" d="M 0.472656 0.242188 L 630.726562 0.242188 L 630.726562 364.457031 L 0.472656 364.457031 Z M 0.472656 0.242188 " fill-opacity="1" fill-rule="nonzero"/></g></g></g></g></g></g><g clip-path="url(#c0dd67c66d)"><g clip-path="url(#35a8346b0e)"><g clip-path="url(#1d9e47f4f8)"><g transform="matrix(1, 0, 0, 1, 703, 536)"><g clip-path="url(#54690a34d1)"><g clip-path="url(#c5a1fa200e)"><g clip-path="url(#78ea17a92d)"><g clip-path="url(#a1997efada)"><path fill="#004aad" d="M 473.148438 91.3125 L 159.394531 637.921875 L -156.476562 456.613281 L 157.273438 -89.996094 Z M 473.148438 91.3125 " fill-opacity="1" fill-rule="nonzero"/></g></g></g></g></g></g></g></g><g clip-path="url(#e50be5c6b1)"><g clip-path="url(#a1908e386e)"><g clip-path="url(#28d6bbe88a)"><g transform="matrix(1, 0, 0, 1, 372, 538)"><g clip-path="url(#83d057c3ff)"><g clip-path="url(#571e2373dd)"><g clip-path="url(#46a61cbbe4)"><g clip-path="url(#d3e655245f)"><path fill="#1e1e1e" d="M 157.53125 637.480469 L -156.640625 91.113281 L 159.089844 -90.441406 L 473.265625 455.925781 Z M 157.53125 637.480469 " fill-opacity="1" fill-rule="nonzero"/></g></g></g></g></g></g></g></g></g></g></svg>